<svg id="visual" viewBox="0 0 960 540" width="960" height="540" xmlns="http://www.w3.org/2000/svg" xmlns:xlink="http://www.w3.org/1999/xlink" version="1.1"><rect x="0" y="0" width="960" height="540" fill="#f1d6d6"></rect><path d="M0 323L20 342.7C40 362.3 80 401.7 120 406.3C160 411 200 381 240 380C280 379 320 407 360 403.3C400 399.7 440 364.3 480 364C520 363.7 560 398.3 600 399.5C640 400.7 680 368.3 720 368.5C760 368.7 800 401.3 840 408C880 414.7 920 395.3 940 385.7L960 376L960 541L940 541C920 541 880 541 840 541C800 541 760 541 720 541C680 541 640 541 600 541C560 541 520 541 480 541C440 541 400 541 360 541C320 541 280 541 240 541C200 541 160 541 120 541C80 541 40 541 20 541L0 541Z" fill="#f0b1b1" stroke-linecap="round" stroke-linejoin="miter"></path></svg>