<svg id="visual" viewBox="0 0 960 540" width="960" height="540" xmlns="http://www.w3.org/2000/svg" xmlns:xlink="http://www.w3.org/1999/xlink" version="1.1"><rect x="0" y="0" width="960" height="540" fill="#f1d6d6"></rect><path d="M0 113L22.8 98.5C45.7 84 91.3 55 137 61.5C182.7 68 228.3 110 274 109.5C319.7 109 365.3 66 411.2 64.2C457 62.3 503 101.7 548.8 106.3C594.7 111 640.3 81 686 71.8C731.7 62.7 777.3 74.3 823 93.3C868.7 112.3 914.3 138.7 937.2 151.8L960 165L960 0L937.2 0C914.3 0 868.7 0 823 0C777.3 0 731.7 0 686 0C640.3 0 594.7 0 548.8 0C503 0 457 0 411.2 0C365.3 0 319.7 0 274 0C228.3 0 182.7 0 137 0C91.3 0 45.7 0 22.8 0L0 0Z" fill="#ffcaca" stroke-linecap="round" stroke-linejoin="miter"></path></svg>