<svg id="visual" viewBox="0 0 960 540" width="960" height="540" xmlns="http://www.w3.org/2000/svg" xmlns:xlink="http://www.w3.org/1999/xlink" version="1.1"><g stroke-width="1" stroke-linejoin="bevel"><path d="M520.3 296L417.7 266L498.3 381Z" fill="#c7a9a9" stroke="#c7a9a9"></path><path d="M417.7 266L414.7 386L498.3 381Z" fill="#d4b6b6" stroke="#d4b6b6"></path><path d="M414.7 386L417.7 460L498.3 381Z" fill="#c7a9a9" stroke="#c7a9a9"></path><path d="M565.3 207L412.7 183L417.7 266Z" fill="#edd1d1" stroke="#edd1d1"></path><path d="M417.7 266L301 335L414.7 386Z" fill="#d4b6b6" stroke="#d4b6b6"></path><path d="M301 301L301 335L417.7 266Z" fill="#edd1d1" stroke="#edd1d1"></path><path d="M414.7 386L342 481L417.7 460Z" fill="#f1d6d6" stroke="#f1d6d6"></path><path d="M412.7 183L301 301L417.7 266Z" fill="#d8bbbb" stroke="#d8bbbb"></path><path d="M606 243L565.3 207L520.3 296Z" fill="#e9cdcd" stroke="#e9cdcd"></path><path d="M520.3 296L565.3 207L417.7 266Z" fill="#e4c8c8" stroke="#e4c8c8"></path><path d="M667 343L606 243L520.3 296Z" fill="#edd1d1" stroke="#edd1d1"></path><path d="M417.7 460L542.3 482L498.3 381Z" fill="#e9cdcd" stroke="#e9cdcd"></path><path d="M498.3 381L667 343L520.3 296Z" fill="#e4c8c8" stroke="#e4c8c8"></path><path d="M301 335L342 481L414.7 386Z" fill="#e9cdcd" stroke="#e9cdcd"></path><path d="M417.7 460L531.3 540L542.3 482Z" fill="#d8bbbb" stroke="#d8bbbb"></path><path d="M606 243L603 191L565.3 207Z" fill="#e4c8c8" stroke="#e4c8c8"></path><path d="M516.3 111L399.7 125L412.7 183Z" fill="#e4c8c8" stroke="#e4c8c8"></path><path d="M516.3 111L412.7 183L565.3 207Z" fill="#e4c8c8" stroke="#e4c8c8"></path><path d="M412.7 183L326 146L301 301Z" fill="#f1d6d6" stroke="#f1d6d6"></path><path d="M604 477L667 343L498.3 381Z" fill="#d8bbbb" stroke="#d8bbbb"></path><path d="M721.7 128L630 117L603 191Z" fill="#d8bbbb" stroke="#d8bbbb"></path><path d="M542.3 482L604 477L498.3 381Z" fill="#d4b6b6" stroke="#d4b6b6"></path><path d="M399.7 125L326 146L412.7 183Z" fill="#cbadad" stroke="#cbadad"></path><path d="M342 481L402.7 540L417.7 460Z" fill="#cbadad" stroke="#cbadad"></path><path d="M542.3 482L531.3 540L604 477Z" fill="#d8bbbb" stroke="#d8bbbb"></path><path d="M603 191L516.3 111L565.3 207Z" fill="#f1d6d6" stroke="#f1d6d6"></path><path d="M301 301L236.3 372L301 335Z" fill="#cfb2b2" stroke="#cfb2b2"></path><path d="M301 335L236.3 372L342 481Z" fill="#e0c4c4" stroke="#e0c4c4"></path><path d="M219.3 232L236.3 372L301 301Z" fill="#cbadad" stroke="#cbadad"></path><path d="M402.7 540L531.3 540L417.7 460Z" fill="#edd1d1" stroke="#edd1d1"></path><path d="M342 481L338 540L402.7 540Z" fill="#dcbfbf" stroke="#dcbfbf"></path><path d="M187.3 484L338 540L342 481Z" fill="#dcbfbf" stroke="#dcbfbf"></path><path d="M326 146L219.3 232L301 301Z" fill="#e0c4c4" stroke="#e0c4c4"></path><path d="M399.7 125L327 98L326 146Z" fill="#cbadad" stroke="#cbadad"></path><path d="M326 146L238.3 158L219.3 232Z" fill="#edd1d1" stroke="#edd1d1"></path><path d="M336 0L327 98L399.7 125Z" fill="#cbadad" stroke="#cbadad"></path><path d="M604 477L718.7 388L667 343Z" fill="#dcbfbf" stroke="#dcbfbf"></path><path d="M721.7 128L603 191L606 243Z" fill="#dcbfbf" stroke="#dcbfbf"></path><path d="M741.7 422L718.7 388L604 477Z" fill="#e0c4c4" stroke="#e0c4c4"></path><path d="M765.7 280L606 243L667 343Z" fill="#cfb2b2" stroke="#cfb2b2"></path><path d="M603 191L630 117L516.3 111Z" fill="#d4b6b6" stroke="#d4b6b6"></path><path d="M516.3 111L444.7 0L399.7 125Z" fill="#c7a9a9" stroke="#c7a9a9"></path><path d="M327 98L238.3 158L326 146Z" fill="#cbadad" stroke="#cbadad"></path><path d="M676 540L741.7 422L604 477Z" fill="#e9cdcd" stroke="#e9cdcd"></path><path d="M718.7 388L765.7 280L667 343Z" fill="#c7a9a9" stroke="#c7a9a9"></path><path d="M531.3 540L676 540L604 477Z" fill="#cbadad" stroke="#cbadad"></path><path d="M120.7 429L187.3 484L236.3 372Z" fill="#f1d6d6" stroke="#f1d6d6"></path><path d="M236.3 372L187.3 484L342 481Z" fill="#dcbfbf" stroke="#dcbfbf"></path><path d="M839.3 373L765.7 280L718.7 388Z" fill="#e4c8c8" stroke="#e4c8c8"></path><path d="M511.3 0L444.7 0L516.3 111Z" fill="#d8bbbb" stroke="#d8bbbb"></path><path d="M327 98L202.3 55L238.3 158Z" fill="#f1d6d6" stroke="#f1d6d6"></path><path d="M630 117L511.3 0L516.3 111Z" fill="#d4b6b6" stroke="#d4b6b6"></path><path d="M765.7 280L721.7 128L606 243Z" fill="#edd1d1" stroke="#edd1d1"></path><path d="M630 117L646 0L511.3 0Z" fill="#cbadad" stroke="#cbadad"></path><path d="M80.7 204L113.7 301L219.3 232Z" fill="#e4c8c8" stroke="#e4c8c8"></path><path d="M219.3 232L113.7 301L236.3 372Z" fill="#e4c8c8" stroke="#e4c8c8"></path><path d="M444.7 0L336 0L399.7 125Z" fill="#e0c4c4" stroke="#e0c4c4"></path><path d="M238.3 158L80.7 204L219.3 232Z" fill="#d4b6b6" stroke="#d4b6b6"></path><path d="M124.7 540L180.3 540L187.3 484Z" fill="#e9cdcd" stroke="#e9cdcd"></path><path d="M187.3 484L180.3 540L338 540Z" fill="#e0c4c4" stroke="#e0c4c4"></path><path d="M113.7 301L120.7 429L236.3 372Z" fill="#e4c8c8" stroke="#e4c8c8"></path><path d="M765.7 280L785.7 168L721.7 128Z" fill="#f1d6d6" stroke="#f1d6d6"></path><path d="M854.3 200L785.7 168L765.7 280Z" fill="#dcbfbf" stroke="#dcbfbf"></path><path d="M336 0L202.3 55L327 98Z" fill="#cfb2b2" stroke="#cfb2b2"></path><path d="M712.7 0L630 117L721.7 128Z" fill="#e4c8c8" stroke="#e4c8c8"></path><path d="M712.7 0L646 0L630 117Z" fill="#c7a9a9" stroke="#c7a9a9"></path><path d="M113.7 301L72.7 328L120.7 429Z" fill="#cbadad" stroke="#cbadad"></path><path d="M0 280L72.7 328L113.7 301Z" fill="#cbadad" stroke="#cbadad"></path><path d="M868.3 465L839.3 373L741.7 422Z" fill="#cfb2b2" stroke="#cfb2b2"></path><path d="M741.7 422L839.3 373L718.7 388Z" fill="#e4c8c8" stroke="#e4c8c8"></path><path d="M676 540L780.7 540L741.7 422Z" fill="#d8bbbb" stroke="#d8bbbb"></path><path d="M120.7 63L80.7 204L238.3 158Z" fill="#cbadad" stroke="#cbadad"></path><path d="M0 540L124.7 540L120.7 429Z" fill="#edd1d1" stroke="#edd1d1"></path><path d="M120.7 429L124.7 540L187.3 484Z" fill="#f1d6d6" stroke="#f1d6d6"></path><path d="M336 0L214.3 0L202.3 55Z" fill="#e4c8c8" stroke="#e4c8c8"></path><path d="M202.3 55L120.7 63L238.3 158Z" fill="#e9cdcd" stroke="#e9cdcd"></path><path d="M821.3 93L712.7 0L721.7 128Z" fill="#c7a9a9" stroke="#c7a9a9"></path><path d="M867.3 248L854.3 200L765.7 280Z" fill="#dcbfbf" stroke="#dcbfbf"></path><path d="M785.7 168L821.3 93L721.7 128Z" fill="#d8bbbb" stroke="#d8bbbb"></path><path d="M839.3 373L867.3 248L765.7 280Z" fill="#d8bbbb" stroke="#d8bbbb"></path><path d="M214.3 0L120.7 63L202.3 55Z" fill="#e9cdcd" stroke="#e9cdcd"></path><path d="M854.3 200L821.3 93L785.7 168Z" fill="#d8bbbb" stroke="#d8bbbb"></path><path d="M780.7 540L868.3 465L741.7 422Z" fill="#d4b6b6" stroke="#d4b6b6"></path><path d="M839.3 373L960 359L867.3 248Z" fill="#f1d6d6" stroke="#f1d6d6"></path><path d="M0 280L113.7 301L80.7 204Z" fill="#cbadad" stroke="#cbadad"></path><path d="M0 280L0 322L72.7 328Z" fill="#dcbfbf" stroke="#dcbfbf"></path><path d="M72.7 328L0 424L120.7 429Z" fill="#d4b6b6" stroke="#d4b6b6"></path><path d="M0 214L0 280L80.7 204Z" fill="#dcbfbf" stroke="#dcbfbf"></path><path d="M0 322L0 424L72.7 328Z" fill="#e0c4c4" stroke="#e0c4c4"></path><path d="M0 77L0 214L80.7 204Z" fill="#f1d6d6" stroke="#f1d6d6"></path><path d="M780.7 540L885.3 540L868.3 465Z" fill="#f1d6d6" stroke="#f1d6d6"></path><path d="M960 423L960 359L839.3 373Z" fill="#d4b6b6" stroke="#d4b6b6"></path><path d="M0 424L0 540L120.7 429Z" fill="#c7a9a9" stroke="#c7a9a9"></path><path d="M960 423L839.3 373L868.3 465Z" fill="#e9cdcd" stroke="#e9cdcd"></path><path d="M867.3 248L960 217L854.3 200Z" fill="#d8bbbb" stroke="#d8bbbb"></path><path d="M854.3 200L960 53L821.3 93Z" fill="#d4b6b6" stroke="#d4b6b6"></path><path d="M214.3 0L68.7 0L120.7 63Z" fill="#dcbfbf" stroke="#dcbfbf"></path><path d="M120.7 63L0 77L80.7 204Z" fill="#cbadad" stroke="#cbadad"></path><path d="M960 359L960 264L867.3 248Z" fill="#cbadad" stroke="#cbadad"></path><path d="M960 540L960 423L868.3 465Z" fill="#f1d6d6" stroke="#f1d6d6"></path><path d="M960 264L960 217L867.3 248Z" fill="#e4c8c8" stroke="#e4c8c8"></path><path d="M68.7 0L0 77L120.7 63Z" fill="#c7a9a9" stroke="#c7a9a9"></path><path d="M960 53L876.3 0L821.3 93Z" fill="#d4b6b6" stroke="#d4b6b6"></path><path d="M821.3 93L876.3 0L712.7 0Z" fill="#d8bbbb" stroke="#d8bbbb"></path><path d="M885.3 540L960 540L868.3 465Z" fill="#e4c8c8" stroke="#e4c8c8"></path><path d="M68.7 0L0 0L0 77Z" fill="#cfb2b2" stroke="#cfb2b2"></path><path d="M960 217L960 53L854.3 200Z" fill="#d8bbbb" stroke="#d8bbbb"></path><path d="M960 53L960 0L876.3 0Z" fill="#dcbfbf" stroke="#dcbfbf"></path></g></svg>